<svg width="120" height="127" viewBox="0 0 120 127" fill="none" xmlns="http://www.w3.org/2000/svg">
<path d="M57.4366 12.0801V9.5801H57.3943L57.3521 9.58153L57.4366 12.0801ZM29.1953 27.4464L31.4375 28.552L29.1953 27.4464ZM24.5707 38.0598L26.8933 38.9847L26.8933 38.9847L24.5707 38.0598ZM3.02047 40.7173L0.539256 40.4115L0.533037 40.4619L0.528874 40.5126L3.02047 40.7173ZM22.996 14.1755L21.6405 12.0749L21.6405 12.0749L22.996 14.1755ZM98.0765 19.7633L96.2471 21.4671L96.2473 21.4674L98.0765 19.7633ZM99.3285 21.104L97.5022 22.8113L97.5025 22.8116L99.3285 21.104ZM116.674 65.8622L114.175 65.7974V65.7974L116.674 65.8622ZM5.08684 93.1025L7.2678 91.8805L7.22449 91.8032L7.17582 91.7292L5.08684 93.1025ZM5.08684 88.2133L2.84461 87.1077H2.84461L5.08684 88.2133ZM5.36956 87.6229L3.11074 86.5516L3.1106 86.5519L5.36956 87.6229ZM39.5275 50.4959L38.345 48.2932L38.345 48.2932L39.5275 50.4959ZM81.6842 39.2982L81.7159 36.7984L81.7156 36.7984L81.6842 39.2982ZM93.255 30.9388L95.4972 29.8332L93.255 30.9388ZM57.3521 9.58153C53.6797 9.70566 47.8235 10.516 42.0414 12.9343C36.2506 15.3561 30.3359 19.4803 26.953 26.3408L31.4375 28.552C34.1162 23.1195 38.8781 19.6769 43.9706 17.5471C49.0717 15.4137 54.3053 14.6874 57.521 14.5787L57.3521 9.58153ZM26.953 26.3408C24.8366 30.6331 23.404 34.2322 22.2481 37.1349L26.8933 38.9847C28.0461 36.0898 29.4161 32.6515 31.4375 28.552L26.953 26.3408ZM22.2481 37.1349C20.6411 41.1703 19.7104 43.4034 18.4427 44.7795C17.4312 45.8775 16.0166 46.599 12.6637 46.599V51.599C16.8219 51.599 19.8241 50.6595 22.1201 48.1672C24.1599 45.953 25.4271 42.6665 26.8933 38.9847L22.2481 37.1349ZM12.6637 46.599C9.14373 46.599 7.45178 45.4412 6.60342 44.3878C5.67307 43.2326 5.43927 41.808 5.51207 40.9221L0.528874 40.5126C0.372073 42.4206 0.827032 45.1868 2.70928 47.524C4.67351 49.9629 7.918 51.599 12.6637 51.599V46.599ZM5.50169 41.0232C6.08942 36.2556 11.1705 24.7816 24.3515 16.2761L21.6405 12.0749C7.3648 21.2868 1.32919 34.0036 0.539256 40.4115L5.50169 41.0232ZM24.3515 16.2761C39.0763 6.77444 48.2433 5.5 57.4366 5.5V0.5C47.3431 0.5 37.2234 2.01944 21.6405 12.0749L24.3515 16.2761ZM57.4366 5.5C61.9571 5.5 68.9111 6.49342 76.1565 9.02686C83.3996 11.5595 90.7523 15.5675 96.2471 21.4671L99.906 18.0594C93.6911 11.3866 85.5455 7.01296 77.8069 4.30707C70.0706 1.60199 62.5595 0.5 57.4366 0.5V5.5ZM96.2473 21.4674C96.6699 21.921 97.0889 22.3691 97.5022 22.8113L101.155 19.3968C100.741 18.9539 100.325 18.5091 99.9058 18.0592L96.2473 21.4674ZM97.5025 22.8116C102.6 28.2631 106.828 32.81 109.789 39.0538C112.728 45.251 114.499 53.3171 114.175 65.7974L119.174 65.9271C119.512 52.9071 117.674 44.01 114.307 36.9111C110.962 29.8587 106.186 24.7767 101.155 19.3965L97.5025 22.8116ZM114.175 65.7974C113.514 91.2954 92.297 121.335 58.1254 121.335V126.335C95.5903 126.335 118.458 93.5128 119.174 65.9271L114.175 65.7974ZM58.1254 121.335C28.406 121.335 12.784 101.725 7.2678 91.8805L2.90588 94.3246C8.86988 104.968 25.8519 126.335 58.1254 126.335V121.335ZM7.17582 91.7292C7.18888 91.749 7.03577 91.4834 6.9904 91.0004C6.94941 90.564 7.00033 89.9856 7.32908 89.3189L2.84461 87.1077C1.29781 90.2446 2.12086 93.142 2.99786 94.4759L7.17582 91.7292ZM7.32907 89.3189C7.41119 89.1524 7.5147 88.934 7.62852 88.6939L3.1106 86.5519C2.99021 86.8058 2.90577 86.9836 2.84461 87.1077L7.32907 89.3189ZM7.62837 88.6943C9.72801 84.2673 19.2617 64.2127 40.7099 52.6986L38.345 48.2932C15.3896 60.6165 5.28114 81.9755 3.11074 86.5516L7.62837 88.6943ZM40.7099 52.6986C51.2094 47.0622 59.2225 44.3296 65.667 43.0052C72.1055 41.682 77.0764 41.7404 81.6527 41.798L81.7156 36.7984C77.0999 36.7403 71.6657 36.6679 64.6605 38.1075C57.6613 39.546 49.1921 42.4702 38.345 48.2932L40.7099 52.6986ZM81.6525 41.798C82.5426 41.8093 83.4282 41.8204 84.3003 41.8204V36.8204C83.4652 36.8204 82.6112 36.8097 81.7159 36.7984L81.6525 41.798ZM84.3003 41.8204C86.8102 41.8204 88.9564 41.6407 90.7197 41.232C92.4602 40.8286 94.0528 40.1509 95.2071 38.9804C97.8249 36.326 96.9328 32.7445 95.4972 29.8332L91.0127 32.0444C92.3325 34.7208 91.7846 35.3301 91.6471 35.4696C91.4238 35.696 90.8638 36.066 89.5907 36.3611C88.3405 36.6509 86.612 36.8204 84.3003 36.8204V41.8204ZM95.4972 29.8332C94.8142 28.4479 93.3623 26.5287 91.3953 24.4888C89.386 22.4051 86.7131 20.0646 83.4618 17.8667C76.9661 13.4756 68.0482 9.5801 57.4366 9.5801V14.5801C66.8006 14.5801 74.7586 18.0185 80.6616 22.009C83.6097 24.002 86.0168 26.1143 87.796 27.9594C89.6175 29.8484 90.6626 31.3342 91.0127 32.0444L95.4972 29.8332ZM76.0347 94.9041C86.9586 94.9041 95.755 85.934 95.755 74.9423H90.755C90.755 83.2385 84.1318 89.9041 76.0347 89.9041V94.9041ZM95.755 74.9423C95.755 63.9507 86.9586 54.9806 76.0347 54.9806V59.9806C84.1318 59.9806 90.755 66.6462 90.755 74.9423H95.755ZM76.0347 54.9806C65.1107 54.9806 56.3144 63.9507 56.3144 74.9423H61.3144C61.3144 66.6462 67.9375 59.9806 76.0347 59.9806V54.9806ZM56.3144 74.9423C56.3144 85.934 65.1107 94.9041 76.0347 94.9041V89.9041C67.9375 89.9041 61.3144 83.2385 61.3144 74.9423H56.3144Z" fill="url(#paint0_linear)"/>
<defs>
<linearGradient id="paint0_linear" x1="-17.0814" y1="43.2886" x2="51.0409" y2="140.765" gradientUnits="userSpaceOnUse">
<stop stop-color="#F7941D"/>
<stop offset="0.325967" stop-color="#EC7C30"/>
<stop offset="0.685083" stop-color="#DA316A"/>
<stop offset="1" stop-color="#D01A7C"/>
</linearGradient>
</defs>
</svg>
